<svg width="474" height="103" viewBox="0 0 474 103" fill="none" xmlns="http://www.w3.org/2000/svg">
<path d="M78.4601 18.5983C81.7975 18.5983 84.548 19.0007 86.7115 19.8054C88.8918 20.6101 90.5102 21.8255 91.5668 23.4516C92.6235 25.0778 93.1518 27.1314 93.1518 29.6125C93.1518 31.289 92.8331 32.7558 92.1958 34.0132C91.5584 35.2704 90.7199 36.3351 89.6801 37.2067C88.6403 38.0785 87.5166 38.791 86.309 39.3442L97.1265 55.3625H88.4726L79.6927 41.2554H75.5418V55.3625H67.7432V18.5983H78.4601ZM77.9066 24.9855H75.5418V34.9184H78.0576C80.6403 34.9184 82.4852 34.491 83.592 33.6359C84.7157 32.7642 85.2776 31.4901 85.2776 29.8136C85.2776 28.0702 84.6738 26.8296 83.4663 26.092C82.2755 25.3544 80.4223 24.9855 77.9066 24.9855ZM146.731 36.9301C146.731 39.7633 146.38 42.345 145.675 44.6752C144.971 46.9887 143.896 48.9837 142.455 50.6602C141.029 52.3365 139.218 53.6273 137.021 54.5327C134.823 55.4212 132.224 55.8654 129.222 55.8654C126.22 55.8654 123.62 55.4212 121.423 54.5327C119.226 53.6273 117.407 52.3365 115.964 50.6602C114.539 48.9837 113.474 46.9804 112.769 44.6501C112.065 42.3199 111.713 39.7298 111.713 36.8798C111.713 33.0743 112.333 29.7634 113.574 26.947C114.832 24.1139 116.761 21.9176 119.36 20.3586C121.96 18.7996 125.264 18.02 129.272 18.02C133.264 18.02 136.543 18.7996 139.109 20.3586C141.691 21.9176 143.604 24.1139 144.844 26.947C146.103 29.7801 146.731 33.1078 146.731 36.9301ZM119.889 36.9301C119.889 39.4951 120.207 41.7079 120.845 43.5688C121.499 45.4128 122.513 46.8378 123.889 47.8438C125.264 48.8328 127.042 49.3273 129.222 49.3273C131.436 49.3273 133.23 48.8328 134.606 47.8438C135.981 46.8378 136.978 45.4128 137.599 43.5688C138.237 41.7079 138.555 39.4951 138.555 36.9301C138.555 33.0743 137.834 30.04 136.392 27.8271C134.95 25.6142 132.576 24.5078 129.272 24.5078C127.075 24.5078 125.281 25.0107 123.889 26.0165C122.513 27.0057 121.499 28.4306 120.845 30.2914C120.207 32.1355 119.889 34.3484 119.889 36.9301ZM198.575 55.3625H188.664L172.664 27.5504H172.437C172.504 28.7073 172.563 29.8723 172.613 31.0459C172.664 32.2193 172.714 33.3929 172.764 34.5664C172.814 35.7231 172.865 36.8882 172.915 38.0617V55.3625H165.946V18.5983H175.783L191.758 46.1337H191.934C191.901 44.9938 191.858 43.8622 191.808 42.739C191.758 41.6157 191.707 40.4925 191.657 39.3693C191.624 38.2461 191.59 37.1229 191.557 35.9997V18.5983H198.575V55.3625ZM233.64 55.3625H225.84V25.0862H215.853V18.5983H243.627V25.0862H233.64V55.3625ZM282.061 55.3625H260.879V18.5983H282.061V24.9855H268.678V33.0576H281.131V39.4448H268.678V48.925H282.061V55.3625ZM333.981 55.3625H324.069L308.069 27.5504H307.842C307.909 28.7073 307.969 29.8723 308.019 31.0459C308.069 32.2193 308.119 33.3929 308.17 34.5664C308.22 35.7231 308.27 36.8882 308.32 38.0617V55.3625H301.352V18.5983H311.189L327.163 46.1337H327.34C327.306 44.9938 327.264 43.8622 327.213 42.739C327.163 41.6157 327.113 40.4925 327.063 39.3693C327.029 38.2461 326.996 37.1229 326.962 35.9997V18.5983H333.981V55.3625ZM425.769 55.3625H404.586V18.5983H425.769V24.9855H412.385V33.0576H424.838V39.4448H412.385V48.925H425.769V55.3625ZM473.915 18.5983L461.412 55.3625H452.908L440.431 18.5983H448.305L455.223 40.4758C455.34 40.8447 455.533 41.5403 455.801 42.563C456.069 43.5688 456.338 44.6418 456.606 45.7817C456.891 46.9049 457.084 47.8353 457.185 48.573C457.285 47.8353 457.462 46.9049 457.713 45.7817C457.982 44.6585 458.242 43.594 458.493 42.5881C458.761 41.5655 458.954 40.8614 459.072 40.4758L466.04 18.5983H473.915Z" fill="#D1FF33"/>
<path d="M385.371 36.6283C385.371 40.7692 384.575 44.231 382.982 47.0138C381.405 49.78 379.116 51.8672 376.114 53.2753C373.111 54.6667 369.497 55.3625 365.271 55.3625H354.856V18.5983H366.403C370.261 18.5983 373.606 19.2857 376.441 20.6604C379.275 22.0183 381.472 24.0384 383.032 26.7207C384.592 29.3862 385.371 32.6887 385.371 36.6283ZM377.271 36.8296C377.271 34.1137 376.869 31.884 376.064 30.1406C375.275 28.3804 374.101 27.0811 372.541 26.2429C370.999 25.4047 369.086 24.9855 366.805 24.9855H362.655V48.925H366C369.808 48.925 372.634 47.9107 374.478 45.8823C376.341 43.8538 377.271 40.8362 377.271 36.8296Z" fill="white"/>
<path d="M76.0651 75.6808C78.1782 75.6808 79.7732 76.1485 80.8499 77.084C81.9367 78.0195 82.4802 79.478 82.4802 81.4595V92.7H79.9593L79.2801 90.3313H79.1593C78.6864 90.9347 78.1983 91.4326 77.6952 91.8249C77.1921 92.2172 76.6085 92.5089 75.9442 92.7C75.2902 92.9011 74.4902 93.0018 73.5444 93.0018C72.548 93.0018 71.6575 92.8208 70.8726 92.4586C70.0878 92.0864 69.4689 91.5231 69.016 90.7687C68.5632 90.0144 68.3368 89.0588 68.3368 87.902C68.3368 86.182 68.9758 84.8895 70.2538 84.0244C71.5418 83.1594 73.4839 82.6817 76.0801 82.5911L78.9782 82.4855V81.6104C78.9782 80.4537 78.7066 79.6289 78.1631 79.1359C77.6298 78.6431 76.8751 78.3966 75.899 78.3966C75.0637 78.3966 74.2537 78.5174 73.4689 78.7588C72.6839 79.0002 71.9191 79.2969 71.1745 79.649L70.0273 77.1444C70.8424 76.7118 71.7683 76.3598 72.8046 76.0883C73.8512 75.8166 74.938 75.6808 76.0651 75.6808ZM78.9632 84.7185L76.8046 84.794C75.0336 84.8542 73.7909 85.156 73.0764 85.6992C72.3619 86.2424 72.0046 86.9867 72.0046 87.9323C72.0046 88.757 72.2513 89.3605 72.7444 89.7427C73.2374 90.115 73.8865 90.301 74.6915 90.301C75.9191 90.301 76.9355 89.954 77.7405 89.2599C78.5556 88.5558 78.9632 87.5249 78.9632 86.167V84.7185ZM113.344 93.0018C111.764 93.0018 110.396 92.695 109.239 92.0814C108.081 91.4679 107.191 90.5273 106.567 89.2599C105.943 87.9926 105.631 86.3833 105.631 84.4318C105.631 82.4 105.973 80.7403 106.658 79.4528C107.342 78.1653 108.288 77.2149 109.495 76.6012C110.713 75.9876 112.107 75.6808 113.676 75.6808C114.672 75.6808 115.573 75.7815 116.378 75.9826C117.193 76.1738 117.883 76.4102 118.446 76.6917L117.389 79.5282C116.776 79.2768 116.147 79.0656 115.503 78.8945C114.859 78.7235 114.24 78.638 113.646 78.638C112.67 78.638 111.855 78.8544 111.201 79.2868C110.557 79.7194 110.074 80.3632 109.752 81.2181C109.44 82.0731 109.284 83.1343 109.284 84.4017C109.284 85.6288 109.445 86.6648 109.767 87.5098C110.089 88.3446 110.567 88.9783 111.201 89.4108C111.835 89.8332 112.615 90.0445 113.54 90.0445C114.456 90.0445 115.276 89.9339 116.001 89.7126C116.725 89.4913 117.41 89.2047 118.054 88.8526V91.9305C117.42 92.2926 116.74 92.5591 116.016 92.7301C115.291 92.9113 114.401 93.0018 113.344 93.0018ZM144.691 69.2232V75.1227C144.691 75.7362 144.672 76.3347 144.631 76.9181C144.601 77.5014 144.566 77.9541 144.525 78.276H144.722C145.074 77.6926 145.506 77.2149 146.019 76.8426C146.533 76.4604 147.106 76.1738 147.74 75.9826C148.384 75.7915 149.069 75.696 149.793 75.696C151.071 75.696 152.158 75.9122 153.053 76.3448C153.95 76.7672 154.634 77.426 155.106 78.3212C155.589 79.2164 155.831 80.3782 155.831 81.8066V92.7H152.284V82.4704C152.284 81.1729 152.017 80.2022 151.484 79.5585C150.951 78.9047 150.125 78.5777 149.009 78.5777C147.932 78.5777 147.077 78.804 146.443 79.2567C145.818 79.6992 145.371 80.3582 145.099 81.2333C144.828 82.0982 144.691 83.1543 144.691 84.4017V92.7H141.144V69.2232H144.691ZM188.43 75.6808C188.713 75.6808 189.019 75.696 189.351 75.7261C189.684 75.7562 189.971 75.7965 190.212 75.8469L189.88 79.1662C189.668 79.1058 189.407 79.0605 189.095 79.0304C188.794 79.0002 188.522 78.9852 188.28 78.9852C187.646 78.9852 187.042 79.0907 186.469 79.302C185.896 79.5031 185.387 79.815 184.944 80.2374C184.502 80.6498 184.154 81.1679 183.903 81.7914C183.651 82.4151 183.526 83.1393 183.526 83.9641V92.7H179.963V75.9976H182.74L183.223 78.9398H183.389C183.721 78.3464 184.134 77.8032 184.627 77.3104C185.12 76.8175 185.684 76.4252 186.318 76.1335C186.962 75.8317 187.667 75.6808 188.43 75.6808ZM219.023 75.6808C221.136 75.6808 222.731 76.1485 223.808 77.084C224.895 78.0195 225.439 79.478 225.439 81.4595V92.7H222.918L222.239 90.3313H222.118C221.645 90.9347 221.157 91.4326 220.653 91.8249C220.15 92.2172 219.566 92.5089 218.903 92.7C218.249 92.9011 217.449 93.0018 216.502 93.0018C215.506 93.0018 214.616 92.8208 213.831 92.4586C213.046 92.0864 212.427 91.5231 211.975 90.7687C211.521 90.0144 211.295 89.0588 211.295 87.902C211.295 86.182 211.935 84.8895 213.212 84.0244C214.5 83.1594 216.443 82.6817 219.038 82.5911L221.936 82.4855V81.6104C221.936 80.4537 221.665 79.6289 221.121 79.1359C220.588 78.6431 219.833 78.3966 218.858 78.3966C218.022 78.3966 217.212 78.5174 216.427 78.7588C215.642 79.0002 214.878 79.2969 214.133 79.649L212.986 77.1444C213.801 76.7118 214.727 76.3598 215.763 76.0883C216.81 75.8166 217.896 75.6808 219.023 75.6808ZM221.921 84.7185L219.763 84.794C217.992 84.8542 216.749 85.156 216.035 85.6992C215.32 86.2424 214.963 86.9867 214.963 87.9323C214.963 88.757 215.21 89.3605 215.702 89.7427C216.196 90.115 216.845 90.301 217.65 90.301C218.877 90.301 219.894 89.954 220.699 89.2599C221.514 88.5558 221.921 87.5249 221.921 86.167V84.7185ZM258.28 75.6808C260.162 75.6808 261.626 76.1688 262.672 77.1444C263.73 78.11 264.258 79.6641 264.258 81.8066V92.7H260.71V82.4704C260.71 81.1729 260.444 80.2022 259.91 79.5585C259.377 78.9047 258.552 78.5777 257.435 78.5777C255.814 78.5777 254.687 79.0757 254.054 80.0714C253.429 81.0672 253.117 82.5106 253.117 84.4017V92.7H249.57V75.9976H252.333L252.831 78.2609H253.027C253.389 77.6774 253.837 77.1997 254.371 76.8276C254.914 76.4453 255.518 76.1586 256.182 75.9675C256.857 75.7765 257.556 75.6808 258.28 75.6808ZM328.687 86.695C328.687 88.0027 328.365 89.1292 327.721 90.0747C327.087 91.0202 326.171 91.7444 324.975 92.2473C323.787 92.7503 322.368 93.0018 320.718 93.0018C319.913 93.0018 319.142 92.9565 318.408 92.866C317.674 92.7754 316.98 92.6446 316.325 92.4737C315.681 92.2926 315.093 92.0763 314.56 91.8249V88.4151C315.455 88.8074 316.456 89.1644 317.563 89.4863C318.67 89.7981 319.797 89.954 320.944 89.954C321.88 89.954 322.655 89.8332 323.268 89.5918C323.893 89.3404 324.355 88.9884 324.658 88.5357C324.959 88.073 325.11 87.5349 325.11 86.9213C325.11 86.2675 324.933 85.7143 324.582 85.2617C324.23 84.809 323.696 84.3967 322.982 84.0244C322.278 83.6422 321.391 83.2348 320.325 82.8023C319.601 82.5106 318.907 82.1787 318.242 81.8066C317.588 81.4344 317.004 80.9969 316.492 80.4939C315.978 79.991 315.571 79.3975 315.268 78.7135C314.977 78.0195 314.831 77.2047 314.831 76.2693C314.831 75.022 315.128 73.9558 315.721 73.0706C316.325 72.1855 317.17 71.5066 318.258 71.0338C319.354 70.5611 320.633 70.3247 322.091 70.3247C323.249 70.3247 324.336 70.4453 325.352 70.6867C326.377 70.9281 327.385 71.2702 328.37 71.7127L327.224 74.6247C326.318 74.2526 325.437 73.9558 324.582 73.7345C323.737 73.5133 322.871 73.4026 321.985 73.4026C321.221 73.4026 320.572 73.5183 320.039 73.7495C319.506 73.9809 319.097 74.3078 318.815 74.7304C318.543 75.1427 318.408 75.6356 318.408 76.2089C318.408 76.8527 318.564 77.3959 318.876 77.8384C319.198 78.271 319.691 78.6683 320.356 79.0304C321.029 79.3925 321.895 79.7949 322.951 80.2374C324.17 80.7403 325.2 81.2684 326.046 81.8217C326.902 82.3749 327.556 83.0387 328.008 83.8133C328.461 84.5777 328.687 85.5383 328.687 86.695ZM358.299 75.6808C360.411 75.6808 362.007 76.1485 363.084 77.084C364.17 78.0195 364.713 79.478 364.713 81.4595V92.7H362.193L361.514 90.3313H361.393C360.92 90.9347 360.432 91.4326 359.928 91.8249C359.426 92.2172 358.843 92.5089 358.178 92.7C357.524 92.9011 356.724 93.0018 355.778 93.0018C354.781 93.0018 353.891 92.8208 353.107 92.4586C352.321 92.0864 351.703 91.5231 351.25 90.7687C350.797 90.0144 350.571 89.0588 350.571 87.902C350.571 86.182 351.21 84.8895 352.487 84.0244C353.775 83.1594 355.718 82.6817 358.314 82.5911L361.212 82.4855V81.6104C361.212 80.4537 360.941 79.6289 360.397 79.1359C359.864 78.6431 359.109 78.3966 358.133 78.3966C357.297 78.3966 356.488 78.5174 355.702 78.7588C354.918 79.0002 354.153 79.2969 353.408 79.649L352.261 77.1444C353.076 76.7118 354.002 76.3598 355.039 76.0883C356.085 75.8166 357.172 75.6808 358.299 75.6808ZM361.197 84.7185L359.038 84.794C357.267 84.8542 356.024 85.156 355.311 85.6992C354.596 86.2424 354.238 86.9867 354.238 87.9323C354.238 88.757 354.485 89.3605 354.978 89.7427C355.472 90.115 356.12 90.301 356.925 90.301C358.153 90.301 359.17 89.954 359.975 89.2599C360.789 88.5558 361.197 87.5249 361.197 86.167V84.7185ZM397.555 75.6808C399.436 75.6808 400.901 76.1688 401.948 77.1444C403.004 78.11 403.532 79.6641 403.532 81.8066V92.7H399.985V82.4704C399.985 81.1729 399.719 80.2022 399.185 79.5585C398.652 78.9047 397.826 78.5777 396.71 78.5777C395.089 78.5777 393.962 79.0757 393.329 80.0714C392.705 81.0672 392.393 82.5106 392.393 84.4017V92.7H388.846V75.9976H391.608L392.106 78.2609H392.302C392.665 77.6774 393.112 77.1997 393.645 76.8276C394.189 76.4453 394.793 76.1586 395.458 75.9675C396.131 75.7765 396.831 75.6808 397.555 75.6808ZM433.28 93.0018C431.287 93.0018 429.687 92.2776 428.479 90.8291C427.283 89.3706 426.684 87.2231 426.684 84.3866C426.684 81.5199 427.292 79.3522 428.51 77.8837C429.738 76.4152 431.353 75.6808 433.356 75.6808C434.201 75.6808 434.94 75.7965 435.574 76.0279C436.208 76.2492 436.751 76.5509 437.205 76.9331C437.667 77.3154 438.06 77.7429 438.382 78.2156H438.548C438.498 77.9038 438.437 77.4563 438.366 76.8728C438.306 76.2794 438.276 75.7311 438.276 75.2282V69.2232H441.838V92.7H439.061L438.427 90.4218H438.276C437.973 90.9046 437.592 91.3421 437.129 91.7344C436.676 92.1166 436.133 92.4234 435.499 92.6547C434.874 92.886 434.135 93.0018 433.28 93.0018ZM434.276 90.12C435.795 90.12 436.867 89.6824 437.49 88.8074C438.115 87.9323 438.437 86.6195 438.456 84.8694V84.4017C438.456 82.5308 438.155 81.0974 437.551 80.1016C436.948 79.0958 435.846 78.5929 434.246 78.5929C432.968 78.5929 431.992 79.1108 431.317 80.1469C430.654 81.1729 430.321 82.6063 430.321 84.4469C430.321 86.2876 430.654 87.6959 431.317 88.6715C431.992 89.6372 432.978 90.12 434.276 90.12ZM469.639 75.9976V92.7H466.091V75.9976H469.639ZM467.887 69.6004C468.431 69.6004 468.898 69.7463 469.291 70.0379C469.694 70.3297 469.895 70.8326 469.895 71.5468C469.895 72.2509 469.694 72.7538 469.291 73.0556C468.898 73.3473 468.431 73.4931 467.887 73.4931C467.324 73.4931 466.846 73.3473 466.453 73.0556C466.071 72.7538 465.88 72.2509 465.88 71.5468C465.88 70.8326 466.071 70.3297 466.453 70.0379C466.846 69.7463 467.324 69.6004 467.887 69.6004Z" fill="white"/>
<path d="M24.6037 91.4125H9.25781V17.8842H51.4211V30.6586H24.6037V49.6191H49.5595V62.3432H24.6037V91.4125Z" fill="white"/>
</svg>
